/* XPM */
static char *C1670519636[] = {
/* columns rows colors chars-per-pixel */
"42 42 179 2 ",
"   c #1B022E",
".  c #1E0232",
"X  c #210335",
"o  c #24043B",
"O  c #29043E",
"+  c #42033A",
"@  c #5D0232",
"#  c #5D043C",
"$  c #710338",
"%  c #270541",
"&  c #2B0543",
"*  c #2D064A",
"=  c #310546",
"-  c #32064B",
";  c #2F0750",
":  c #330751",
">  c #3A0751",
",  c #350854",
"<  c #3B0855",
"1  c #35095A",
"2  c #3B095B",
"3  c #3D0A63",
"4  c #5E0548",
"5  c #4B065E",
"6  c #42095C",
"7  c #560B54",
"8  c #580B56",
"9  c #520859",
"0  c #5D0A5B",
"q  c #6A0548",
"w  c #61095F",
"e  c #430A64",
"r  c #4E0964",
"t  c #440B6B",
"y  c #4C0B6B",
"u  c #5F0C67",
"i  c #4C0D74",
"p  c #4D0E7B",
"a  c #550D74",
"s  c #5A0D77",
"d  c #530E7B",
"f  c #5B0E7C",
"g  c #640963",
"h  c #690867",
"j  c #6C076A",
"k  c #6B096A",
"l  c #71076F",
"z  c #750673",
"x  c #7B0578",
"c  c #840130",
"v  c #960337",
"b  c #A50131",
"n  c #B30234",
"m  c #CE012E",
"M  c #D80237",
"N  c #E0002E",
"B  c #F7002E",
"V  c #FF002D",
"C  c #E10133",
"Z  c #EB0235",
"A  c #F30132",
"S  c #FC0236",
"D  c #8A0648",
"F  c #B2064D",
"G  c #8C0960",
"H  c #9C0B6A",
"J  c #80047D",
"K  c #CC0446",
"L  c #C80758",
"P  c #E90446",
"I  c #F3064F",
"U  c #CA0960",
"Y  c #ED0A68",
"T  c #F20C73",
"R  c #560F82",
"E  c #4C1088",
"W  c #5A1086",
"Q  c #59108A",
"!  c #5A1295",
"~  c #650F81",
"^  c #6C108A",
"/  c #64139A",
"(  c #6E1399",
")  c #72139B",
"_  c #6615A8",
"`  c #7715A7",
"'  c #7917B6",
"]  c #7418B9",
"[  c #7E1AC5",
"{  c #5D23FF",
"}  c #6223FF",
"|  c #6D23FF",
" . c #7523FF",
".. c #7C23FF",
"X. c #850483",
"o. c #890386",
"O. c #8B0489",
"+. c #91018E",
"@. c #820C90",
"#. c #920190",
"$. c #990096",
"%. c #95059B",
"&. c #9A049C",
"*. c #940A9C",
"=. c #8C159C",
"-. c #8F0CA4",
";. c #9E05A2",
":. c #9D0CAD",
">. c #8316AD",
",. c #9C09B1",
"<. c #8817B6",
"1. c #9817BA",
"2. c #A207AB",
"3. c #A00DB7",
"4. c #A20EBD",
"5. c #AC0EBE",
"6. c #AD18B9",
"7. c #BB17B7",
"8. c #CA0F86",
"9. c #D9108E",
"0. c #DB129A",
"q. c #E90F87",
"w. c #E51298",
"e. c #C615AC",
"r. c #CD16B3",
"t. c #D517B8",
"y. c #8D19C1",
"u. c #9618C5",
"i. c #941BCC",
"p. c #9B1BCB",
"a. c #8E1CD3",
"s. c #8E1EDE",
"d. c #9619D5",
"f. c #991AD6",
"g. c #9C1DD5",
"h. c #A60FC2",
"j. c #AC11C7",
"k. c #AB13CF",
"l. c #B110C7",
"z. c #BD16CA",
"x. c #A816D6",
"c. c #B118D5",
"v. c #8D1FE3",
"b. c #941FE4",
"n. c #A31DE3",
"m. c #AC1DEB",
"M. c #BA1AE1",
"N. c #BC1DEB",
"B. c #AE1FF2",
"V. c #BB1FF4",
"C. c #8A21F0",
"Z. c #8323FF",
"A. c #8C23FF",
"S. c #9521F3",
"D. c #9B21F3",
"F. c #9323FF",
"G. c #9C23FF",
"H. c #A920EC",
"J. c #A620F7",
"K. c #AA21F4",
"L. c #A323FF",
"P. c #AC23FF",
"I. c #B221F3",
"U. c #BC21F4",
"Y. c #B423FF",
"T. c #BC23FF",
"R. c #DA1BCE",
"E. c #DF1CD7",
"W. c #C41CEA",
"Q. c #D01EE0",
"!. c #C21FF3",
"~. c #C421EF",
"^. c #D620EF",
"/. c #C321F4",
"(. c #C821F4",
"). c #C423FF",
"_. c #CB23FF",
"`. c #D423FF",
"'. c #D823FF",
/* pixels */
"Y.T.T.T.T.).T.T.)._._._._.`.`.`.).T.P.P.L.Y.Y.T.P.P.G.G.L.Y.Y.T.T.P.Y.Y.)._._._.`._.",
"P.P.Y.Y.T.T.Y.P.Y.T.Y.T.).).).).Y.P.L.L.L.L.P.P.L.G.G.G.G.L.P.Y.Y.Y.Y.).`._.`.`.`._.",
"P.P.Y.T.).T.Y.G.L.L.G.P.Y.T.T.Y.P.P.L.G.L.L.L.P.L.G.G.L.L.L.P.Y.Y.Y.T._.`.`.`.`.`.).",
"L.P.Y.)._.).Y.G.G.G.A.G.P.P.Y.P.P.b.Q / , i p / ] D.G.L.P.P.P.T.).T.).)._.`.`.'.`.).",
"P.Y.)._.`._.).P.G.G.F.L.P.H.W 2 : > = : = o O 6 , 2 2 3 W <.T.).).).T.T.).`.'.`.'.).",
"Y.T.)._._._.).T.P.L._ d & : & & & 2 = X = X = > O : * - , < 2 6 1.Y.P.P.P.T._.`.`.).",
"P.Y.T.).).).).T.K.R 2 2 2 : O o & = o     O 6 O . X - & & & . 2 R s.G.G.F.L.Y.)._._.",
"L.L.Y.Y.T.T.T.y.R p ; * * o X o o =   X   = = O X   X & X o & t / v.G.G.F.G.P.T._._.",
"G.G.G.P.Y.Y.' 2 p 3 * * % % o o X O o O 6 > > o X X   o o - > y / v.F.F.F.G.L.Y._._.",
"G.F.F.L.Y.a.: , ; ; o o o . o o 5 9 r ) x.g.>.s 6 : : & o : & y ` v.F.G.G.F.G.Y.T.).",
"G.F.F.L.Y., , 1 * * .   X & a >.(.l.).T.P.Y.T.)._.Y.L.] 2 3 e a i.J.F.F.F.F.G.Y.).).",
"A.A.G.G.] ; * : % . . . p P.Y.)._.M.T.P.P.P.T.)._.).Y.L.G.L.g.1.m.P.F.F.F.A.P.T.).T.",
"F.A.G.F.! e , o . %   ' P.L.P.T.).M.N.P.P.Y.).`._._.).P.L.L.T.).T.P.F.Z.A.G.)._.).).",
"G.G.G.F.E * % . . % ' P.P.P.Y.T.:.0 7 J H.T._.`.`.`.).Y.L.L.Y.T.Y.G.A.Z.G.T._._.).).",
"G.L.G.G.3 % . o   * g.Y.P.P.Y.&.0 7 7 7 :.U._.`.'.`._.T.P.L.Y.P.L.A.G.Z.L.T.).).)._.",
"A.F.L.P.t * % . o < i.Y.P.P.4.l 7 7 7 7 o.$.2.`.'.'.`.).P.P.P.P.F.L.P.F.G.P.T.P.L.P.",
"F.G.L.P.a : & X   6 <.T.P.p.w 7 7 7 7 7 0 +.$.N.`.'.`._.T.K.u.X.%.B.Y.L.L.P.L.F.A.A.",
"G.L.P.T.a < = o . O >.T.n.7 7 7 7 w 7 7 7 0 +.M.`.`.'.!.*.g 8 8 8 &.V.Y.P.P.L.G.A.Z.",
"P.Y.T.).( : & o X   a ).@.7 7 7 h J J 7 7 7 h 3.).~.=.7 7 7 7 7 7 X.c.T.T.P.L.G.Z.Z.",
"Y.Y.T.).` f > < X X ~ W.+.7 g z o.4.$.7 7 7 7 1.I.7 7 7 7 7 7 7 7 o.5.).T.P.G.F.A.F.",
"P.Y.T.).i.d * % O O 6 5.$.o.o.#.$.x.h.8 8 7 7 -.u 7 7 7 7 w w 7 7 j $.V.Y.L.G.F.G.L.",
"L.P.Y.T.g.t * & O O X ~.$.$.$.k.K.P.H.J 7 7 7 o.8 7 7 0 j *.5.7 7 7 o.x.L.G.F.F.G.P.",
"G.P.Y.Y.Y.i * o O & = 1.U.5.j.U.Y.P.P.x.k 0 l +.z z X.o.;.z.^.1.7 7 x 1.P.F.A.A.F.G.",
"F.L.P.Y.Y.) , & % % & 2 ).).T.T.P.L.L.L.n.d.d.f.$.+.#.j.!.`.`.U.g h O.,.L.G.G.F.G.G.",
"A.L.P.T.).p.< o o O X 6 U.).).Y.L.G.G.L.L.L.L.P.K.N.W._._.`.`._.H.#.$.n.L.G.G.G.G.F.",
"F.G.Y.T._.`.- - O o O > ) T.T.Y.P.P.P.L.L.G.G.L.Y.T.`.`.`.`.`.).P.K.H.H.P.L.P.L.G.L.",
"F.P.Y.)._.`.f = X X o % : Y.Y.T.T.T.Y.P.L.G.L.L.L.Y._.`.`.`._.Y.P.L.P.P.P.Y.P.L.L.P.",
"G.Y.T.T.)._.(.> & o o & : d.Y.)._.`._.T.P.L.L.L.L.P.Y._.`._.T.T.Y.P.P.T.T.Y.Y.Y.P.P.",
"P.Y.Y.T.T.)._.a O o .   o d Y._.'.'.'._.T.Y.P.P.L.G.L.Y.T.).T.T.T.T.).T.T.T.T.Y.T.P.",
"Y.T.Y.T.).`._.` * & .     & f _.'.'.'.'.).Y.Y.P.L.L.L.L.P.T.T.T.T.T.).T.T.Y.T.Y.Y.P.",
"T.).T.T._._._._.t , o X .   X = `.'.'.`.).Y.P.P.L.L.L.L.P.Y.T.Y.P.Y.Y.Y.T.Y.P.L.L.L.",
").).).).).).T.).y > 6 O . . X O = 6 8.V V V V V V V V V V V S e.D.S.L.P.Y.Y.T.L.L.G.",
").).)._.).T.L.L.H.a a = > = o & V V M D C M a G A V C 7 V Z D V V L C.G.P.Y.T.P.G.F.",
"_.T.T.T.Y.Y.G.F.P.K.f ^ 6 = X N n + & b v 4 * * . X V ; v V : & R V 1.F.G.G.P.P.L.A.",
"T.L.P.L.L.L.A.G.P.).~.y e > B c = & = V $ . & o % o V & @ V o & i U V Z.Z.F.G.G.Z.{ ",
"Y.G.A.A.G.G.A.A.P.).).).>.Z V = : * * V m X . . . 1 V O # V X - a F V ..| ..F.F...} ",
"Y.A...A.L.G.Z.Z.G.P.Y.T.0.V H 3 : : & X V # . o ; 3 V X @ V O - y K V .. ...Z.A...} ",
"L.A.Z.G.P.P.F.Z.A.L.P.Y.V Y Y.P./ y 6 = q V 1 3 3 * V % * V & < y P S ....A.F.P.L.| ",
"G.L.Y.T.T.T.P.G.G.P.Y.w.V _.).T.T.T.(.~.c.V 6.a.[ _ V 7.Y.V T.T.).0.V F.F.L.P.Y.P.Z.",
"P.Y.).T.T.).).T.P.T._.V w.`.`._.).).`.'.`.V Q.T.L.L.z.V /.V t.Y.Y.Y.V K.L.L.P.Y.P.A.",
"G.P.T.T.)._._._.).t.V R.`.'.`.'.`._._.`.S V '.`.).Y.Y.t.V V V P.G.L.V 9.P.L.L.P.L.A.",
"A.L.Y.Y._._.`._.q.V q._.`.`.'.'.'.)._.`.T E.'.`.`._._._.^.^.V V G.G.r.I P.L.G.L.F.Z."
};
