/* XPM */
static char *E1670519636[] = {
/* columns rows colors chars-per-pixel */
"42 42 145 2 ",
"   c #1E140E",
".  c #21160F",
"X  c #21180F",
"o  c #231710",
"O  c #251A11",
"+  c #2B1C14",
"@  c #311E16",
"#  c #351D18",
"$  c #1D2D0C",
"%  c #1C3F0B",
"&  c #282D0F",
"*  c #21350A",
"=  c #242211",
"-  c #2C2214",
";  c #2E2C14",
":  c #322117",
">  c #322C16",
",  c #352318",
"<  c #3A251B",
"1  c #362A18",
"2  c #3C2A1B",
"3  c #233C11",
"4  c #2A3912",
"5  c #333B15",
"6  c #353518",
"7  c #383419",
"8  c #383918",
"9  c #40261E",
"0  c #422D1E",
"q  c #42301E",
"w  c #492722",
"e  c #462921",
"r  c #4B2A22",
"t  c #512C25",
"y  c #13470D",
"u  c #1C450B",
"i  c #1A480B",
"p  c #1A5F07",
"a  c #13520B",
"s  c #1D520A",
"d  c #155E0D",
"f  c #1C5E0B",
"g  c #254607",
"h  c #26450C",
"j  c #2B460D",
"k  c #224D0D",
"l  c #344708",
"z  c #324B09",
"x  c #23540C",
"c  c #29540E",
"v  c #255E0B",
"b  c #2C5D0D",
"n  c #335A06",
"m  c #32510D",
"M  c #2F4B10",
"N  c #344719",
"B  c #305F11",
"V  c #3E5D10",
"C  c #136B06",
"Z  c #196C07",
"A  c #1D610A",
"S  c #136C0C",
"D  c #1C690B",
"F  c #117707",
"G  c #167C07",
"H  c #167409",
"J  c #1C740B",
"K  c #16780B",
"L  c #1B7A0B",
"P  c #266305",
"I  c #2C6A07",
"U  c #256409",
"Y  c #2A620B",
"T  c #236D0C",
"R  c #2C6B0B",
"E  c #356607",
"W  c #32640C",
"Q  c #326C0A",
"!  c #3E680A",
"~  c #2C7506",
"^  c #23730B",
"/  c #2C730A",
"(  c #267B0C",
")  c #2C7C0B",
"_  c #33730B",
"`  c #387E09",
"'  c #267110",
"]  c #267C10",
"[  c #168C06",
"{  c #15850A",
"}  c #1D840A",
"|  c #1D8D0B",
" . c #0E940B",
".. c #1A920D",
"X. c #159C0B",
"o. c #1B9B0F",
"O. c #228707",
"+. c #2B8306",
"@. c #2D8D07",
"#. c #25830C",
"$. c #2A820B",
"%. c #248C0B",
"&. c #298D0C",
"*. c #33850A",
"=. c #318C0D",
"-. c #239B06",
";. c #23930B",
":. c #2C940B",
">. c #229B0B",
",. c #2B9C0D",
"<. c #389506",
"1. c #34930C",
"2. c #3B920F",
"3. c #319B08",
"4. c #2E8911",
"5. c #1AAB07",
"6. c #15A50A",
"7. c #1DA50E",
"8. c #17AB0D",
"9. c #1BAB0A",
"0. c #17BC06",
"q. c #16B10E",
"w. c #1CB10D",
"e. c #12B80B",
"r. c #19BB0A",
"t. c #22A907",
"y. c #24A30A",
"u. c #2BA30A",
"i. c #25AD0A",
"p. c #28AD0B",
"a. c #35A307",
"s. c #35A50A",
"d. c #3BA50A",
"f. c #34A80A",
"g. c #2DB406",
"h. c #23B30A",
"j. c #2CB10A",
"k. c #25BB0A",
"l. c #28BA0E",
"z. c #33BF09",
"x. c #26C807",
"c. c #29C20A",
"v. c #29CA0B",
"b. c #34C50A",
"n. c #35CD0A",
/* pixels */
": : 1 1 < 0 0 0 0 0 q 0 q 0 0 0 0 0 0 0 e q q q q r e q e e e 2 0 9 7 , O O X + + X ",
"- : , < 1 < q 2 0 0 0 0 0 0 0 0 0 0 0 q q q e q q q q q q 2 < < : + + O O + + O O + ",
"= - : : , , , 1 2 2 < 1 < 2 0 0 q q 0 r q e q 9 e 2 9 2 < < , : + + + + + + O + O + ",
"O O X = O + + : , , < < 2 9 0 2 9 9 9 0 9 < 9 < e q q e 2 < , + O O O O X O O O X O ",
"O O X o X X = = + < 9 9 9 0 e 9 9 9 < < e < < 9 < 2 9 9 < < , + + + + O O O + O + O ",
"X O = - - - - - + - 1 0 9 2 9 e r 0 e e w w r r r r r e r r e e 9 0 < , : @ - + + + ",
"2 2 2 , - - - - = + o.x x | >.$.W j * v ^ p.:.n M :.u.%.a =.8.%.v O.U / j : : + + + ",
"r r e , - - - ; :.j.&./ >.,.| V z 4.h.s.z <.$.u y.Y ' ) y T x L | ,.y.x u l.O O O . ",
"t r r e - - - = R R S T ,.~ 9.{ J Q p.Y U ) 9.K 8.) ..) #.u Q %.T f :.b G [ O O O O ",
"t t r e ; - - - - n.L ( w.y.9.% E u.| ;.K r.| ;.v L w.k c U ~ z R ] >._ ^ 3 O   X X ",
"t t r r - - - - - | %.f.0 ^ X.] K I ^ } u.a ) ) < < < 7 < < : < 9 e 9 < +           ",
"t r r < - = - - O ..+.f.f.2 N < 2 2 9 < < < < , , < : : : : : # : : - - O o         ",
"r r w < + O - O O ..:.i.h.< < < , < , 1 < < , < , , , : @ : : + @ - + - O O         ",
"w w w # + + + + + ..) &.4.: , , , < < : , , , , , < , : : @ @ : @ - @ O - =         ",
"< < < < # @ @ + - ..d ) #., : , : : < : , , , , , , , , : : : @ @ @ - O + O + O O = ",
"< < < # < # : : : ..4.d D , , : : < : : , , , , , , , : : : : - - + - + O - O - O X ",
"@ @ : @ : : : : - ..b.*.:.@ @ : < : : : , , : , + + : : + @ @ + + + + X + O O + + + ",
"+ - @ : @ : # @ : ..S b.z.: - @ @ @ : @ + : + @ + + O O O O o o . . X X - = o O X X ",
": : : : : : @ : : ..y.:.8._ ` x.0.g.2.;.g.i.k.%.^ %.>.;.M R $.$.( X.{ g O O . O o o ",
": : # : - # - : - ..) ; #.:._ ~ >.t.:.m / +.W h T 7.o.t.' 8.v D v p g.( W + + o o   ",
": : : : : : - : : ..u.] ) =.C -.c.D %.c $ a.e.:.! ....n #...#.Z -.W ,.-.O.# + . X o ",
": , : : : , : : : ..,.d.*.- : - : + > @ + X . . .   .   o   o = @ 1 , # @ o . . o O ",
"1 < , , , , - > , ..( ;.( - = ; - - + = + + X X               + # # @ O . . . . O X ",
"q 2 2 2 2 < > ; > ..) D 2 : > - - + + O + - + X .           o o @ . . . X . . O O X ",
"q q 7 0 0 0 6 ; 1 ..a.o.2 1 > : > : : + + - + O . . . . .   . . . . O . . . . O X O ",
"q q q q 0 q ; 5 6 5.5.k.2 1 2 2 1 2 2 1 , : O X .   . . . . . . O . . . . . O X X X ",
"2 2 7 2 q q < N 1 T ^ y.1 2 1 1 1 2 q q 2 , + X . . . . . . . . . . O . . O O . O O ",
", , , < < 2 , 6 1 } #.T 2 < 2 2 2 2 2 2 , - + O . o o . . . o . O O O . . O . O O X ",
": : : , , , , > > s U @.2 < < 1 2 2 2 1 , - O O O + O o . o O O O O . . O X . . O . ",
": # : , , < 1 2 2 c.o.T 2 2 2 2 2 1 > : - X X O + o + O o o O o O X O + + O @ @ @ @ ",
"< 1 2 2 q q q q q P A  .2 < 9 2 1 < < : , + O O o O O O + o + + + + + @ @ @ : , # , ",
"q 0 q 2 q 7 q q 0 ;.%.v * x < 2 2 2 2 > : : - @ O o O O O O + + @ @ 4 @ @ @ @ @ , # ",
"q 2 2 q q q q q q ..Z v.y.%.T 2 < 2 2 1 , 8 - + O 3 O + O @ / ] >.3.O.X.H , , , # , ",
"0 q q q q q q q q $.} 1.s ^ ^ %.%.H S >.i } $.) F j.:.:.l 6./ ) u G o.T :.I # , # , ",
"e q q q q q q e e l.....h J *.;.K ;.0.G $.u.) %...A 3.:.J s #.:.^ ^ } 6.} : < : , , ",
"7 2 q 2 7 q 2 7 2 ! 2 2 < 7 B :.O.-.R O.( _ f q.b & + + @ : @ # : # , , , # # : # , ",
"< 2 2 2 2 2 < < , , , < < < , < , O O O O O o = X + + + + , , , : : : # : : : : @ @ ",
"@ # , , 2 2 1 - - : , , < , : , @ O O O O O O O O X + + + @ : : # @ - + + + + + + O ",
"@ @ : , < , < q < : # + + + - + + . o O O O O O X X + X X + X X + O O O + + O O O O ",
"@ # # : - - : , + @ # + + + + O O . O o . O o O + X X X O + O + O O + - + O + O O O ",
"# o o # # # + # + + + + + o + + o o o o O o . . o o o o + o o o + X - : O + O + O O ",
"# # # # o o + + + + + @ + + + + + + + o O O . . o o o . + . # o O - , , @ + + + O + "
};
