/* XPM */
static char *_1670519635[] = {
/* columns rows colors chars-per-pixel */
"42 42 64 1 ",
"  c #020202",
". c gray2",
"X c gray3",
"o c gray5",
"O c gray7",
"+ c #161616",
"@ c #191919",
"# c gray11",
"$ c gray13",
"% c #272727",
"& c #282828",
"* c #2D2D2D",
"= c #323232",
"- c #373737",
"; c #393939",
": c #3F3F3F",
"> c gray25",
", c #444444",
"< c #484848",
"1 c #4E4E4E",
"2 c #505050",
"3 c gray34",
"4 c gray35",
"5 c gray37",
"6 c #606060",
"7 c #676767",
"8 c #6A6A6A",
"9 c gray43",
"0 c gray44",
"q c #777777",
"w c #7B7B7B",
"e c gray49",
"r c #838383",
"t c gray53",
"y c gray54",
"u c #8E8E8E",
"i c #939393",
"p c gray59",
"a c #9B9B9B",
"s c #9D9D9D",
"d c #A2A2A2",
"f c gray65",
"g c #A9A9A9",
"h c #ACACAC",
"j c #B2B2B2",
"k c gray71",
"l c gray72",
"z c gray74",
"x c #C0C0C0",
"c c gray77",
"v c #CACACA",
"b c #CDCDCD",
"n c gray82",
"m c #D7D7D7",
"M c #DADADA",
"N c #DDDDDD",
"B c #E1E1E1",
"V c #E7E7E7",
"C c gray92",
"Z c #EEEEEE",
"A c #F1F1F1",
"S c gray97",
"D c gray98",
"F c white",
/* pixels */
"       .... .  X...X.XXXooooOOoooooOooXX. ",
"     o@$$%$$$%&**==--;::<211122212232<>&O.",
"..  .&4qeeeweryiiipasddgjkkllllklllllks8%.",
"o.  O2dcMMmMMBBBBVVVVCCCAAAAAASAAZBCAAMu=.",
"o. X&qy7nDDDDFDFFFFFFFFFFFFFFFFFFz6gFFBa=.",
".  O-,&-yFFFFFFFFFFFZVNCSFFFFFFFFa$yFFBu*.",
"  .O@$3fSFFFFFFFFFSBkirsvZFFFFFFF0#dFDMe%.",
"  O@:iAFFFFFFFFFFSNd1$@=qvSFFFFFF4=lFAc6O ",
" X-qvDFFFFFFFFFDAMd,o  .=aCFFFFFC11mFZh,X ",
" +6zAFFFFFFFFFDCci1+    +eNFFFFFv:8SDVs-. ",
".%tNFFFFFFFFDANh0;O     +wNFFFFFFDBFFCa;X ",
" =sCFFFFFFFSVxi3%X      $iCFFFFFFFFFFVs;X ",
".:hAFFFFFFDBj0;@X      .;gAFFFFFFFFFFCf:X ",
".,lAFFFFFFAx0&o        o2zAFFFFFFFFFFAh:X ",
"X1xSFFFFFFVg<X. .X+@o  O6cSFFFFFFFFFFSj:. ",
"o5bDFFFFFDCg1o.X+=1;o  @8bSFFFFFFFFFFSh=  ",
"O9mFFFFFFFAce:&-4ti1O .@0nSFFFFFFFFFFDj%  ",
"+rBFFFFFFFDVcsualnj2o  #qmFFFFFFFFFFFSj*  ",
"$pZFFFFFFFFDABNBZZl2o .#qmDFFFFFFFFFFDx;  ",
"%dZFFFFFFFFFFDDDFAj<o .$eMDFFFFFFFFFFFB4  ",
"=gSFFFFFFFFFFFFFFCf:X .%yNDFFFFFFFFFFFVqo ",
"=hSFFFFFFFFFFFFFDNu&. .*iBFFFFFFFFFFFFZto ",
"=fAFFFFFFFFFFFFFDm0#  X;dCFFFFFFFFFFFFZu+ ",
"$pCFFFFFFFFFFFFFSx5O  o1lAFFFFFFFFFFFFZuO ",
"@rBFFFFFFFFFFFFFZk1O  +6vDFFFFFFFFFFFFZro ",
"o9MDFFFFFFFFFFFFCf:X  $wMDFFFFFFFFFFFFB8X ",
"o7nDFFFFFFFFFFFFBi*. .*iBFFFFFFFFFFFFFm3. ",
"o5bDFFFFFFFFFFFDNr%. X;fZFFFFFFFFFFFFFb,  ",
"X5bDFFFFFFFFFFFDmq#  X,jZFFFFFFFFFFFFFn,  ",
"X3bDFFFFFFFFFDSCz7@  X>sMZASDDFFFFFFFFb,  ",
".>lDFFFFFFDSVmcjr>o  .$6iglvmCSDFFFFFFb<  ",
" $sZFFFFFSCvdr6<*O.   X#=>28tjMSFFFFFFn1  ",
" oqVZmVFFCzr,%+X.      ..XO#=6hVDFFFFFm5. ",
" .4Ma#yFDMi:O.             ..*ymSFFFFFB0X ",
" .3nh*wFSnw$     XX. .XX. ...&tmSCFFFFCwo ",
" .5Mx-5SSmu-ooO@%->:::>:*%$$&4fBn3yvFFCeo ",
" X9BN,2VDCle2<38ragjjjhdirqqrfmAf,#:8jCeo ",
" +tZD4,nFDVvkhlbMVZAAAACBMmnmVAFDxe1#-grO ",
" #pZD85nSSSZCZADSSSSASDDDDDSDDFFFFFna8btO ",
" @tnmbbbbnMVVVNmbxlkllxvnMNVCVAASAAASVBtO ",
" +2wwq999qripu051,:;::<3680wrusjzzllzzj9O ",
" X@#$#@@@#$**$OX..    .XXoOO+@&:1332323;o "
};
