/* XPM */
static char *_1670519636[] = {
/* columns rows colors chars-per-pixel */
"42 42 84 1 ",
"  c #59345D",
". c #5C385F",
"X c #5C3760",
"o c #5E3A62",
"O c #613E66",
"+ c #643F69",
"@ c #634167",
"# c #65436A",
"$ c #69456D",
"% c #6A496E",
"& c #6B4671",
"* c #6D4B72",
"= c #714C75",
"- c #754D79",
"; c #725176",
": c #755479",
"> c #79557D",
", c #77597B",
"< c #7A597E",
"1 c #7D5582",
"2 c #7D5B82",
"3 c #7E6181",
"4 c #815686",
"5 c #815C86",
"6 c #855C8A",
"7 c #895E8E",
"8 c #826486",
"9 c #85638A",
"0 c #89648E",
"q c #876A8A",
"w c #8A6B8E",
"e c #8D6492",
"r c #8E6B92",
"t c #906795",
"y c #916B96",
"u c #956D99",
"i c #8F7093",
"p c #917196",
"a c #937897",
"s c #96729A",
"d c #99739E",
"f c #97789B",
"g c #997A9D",
"h c #9C76A1",
"j c #9E7BA2",
"k c #A27EA6",
"l c #A37FA8",
"z c #9E83A1",
"x c #A183A5",
"c c #A583AA",
"v c #A886AC",
"b c #A68AA9",
"n c #AA8AAE",
"m c #AD8DB1",
"M c #AE91B2",
"N c #B192B5",
"B c #B298B6",
"V c #B496B8",
"C c #B699BA",
"Z c #BA9DBD",
"A c #BBA1BE",
"S c #BEA2C1",
"D c #C1A6C4",
"F c #C3A9C6",
"G c #C5ACC9",
"H c #C8AECB",
"J c #CBB2CE",
"K c #CDB6D0",
"L c #CFB8D2",
"P c #D2BCD5",
"I c #D6C1D9",
"U c #D9C5DC",
"Y c #DCC9DE",
"T c #DECCE1",
"R c #E0CFE3",
"E c #E3D2E5",
"W c #E7D6E9",
"Q c #EADBEC",
"! c #EEE1F0",
"~ c #F1E5F3",
"^ c #F5E9F6",
"/ c #F7ECF8",
"( c #F9EEFA",
") c #FDF4FE",
/* pixels */
"/!~~~QEEWWWWQWTTUEWWQQQEWWTIYPITRT~())))))",
"^~~QQQEPUTEEPYRRPPYTUUTYUPUPJHJIPTQ())))))",
"~QQWETTIPKPKHKPPPJJJJLIIIKJHDFFPTPW^()))))",
"QQEEWUUIJDGPJKJJJHDDHJJJPPKHHSSHLKWQ~())))",
"WREYPUYPDSFHFHFJKFSASAZZCSFSHZNNZHPLT/(())",
"TEEUPPJFZNNCZNCDFCNNNNZCZCCZCNmnnNGFFE!!))",
"TWPKKJFZCZmmMmMnbxxjxcNNNmNmmVmvllNVSKPW!~",
"UJJJFHJZvCMmncgffipiffjkcmNvvccmvknmZHTR~W",
"KGDGSKFSmlkkjfr98wqqii09refsysdjmvkcVZKTTT",
"JGSZSDSVVnkhf9921<22322,:;<22rrrzbnmZZSKIY",
"PKSZDDNlMnkr852<,,;****;*****=25uvvvCFHKGY",
"KGDCZVNnCMj92;,<,;%%$%*&%@O@@#$=2rshnZSFIR",
"HDZDSmNmmkw2>;<;*%##&;*+@+oooOo$;qizjABAIU",
"GJFDCvkcxy9>:;*##@$@&****$Oooo@@%:qgxCFHII",
"KJDSmchkx0>;*#OO+O*=>29691*+@o@@$%:wxCASGU",
"HFHSVcldj5**$OoOo$>07eeyer61*@o..#%3zMAASA",
"FSZNCmhur1**$OXXO*9ukdttudte1-+o@%%,qMAASI",
"PGZmmmku02=*#OOX+-eutddtdddte7-+@%;,3bASJI",
"KHNlcllje2=Oo.Xo&6tutht7tuhde91&%o%,qzSYII",
"DDDmlduu0>*#@OXO&17uhhdeelvlu7-&%%%,3zARTW",
"GDFNvhue6:$+oOO$*147dtttuuvlue2>;;*<8aBFYQ",
"KLDvvluur>#oXo%=-4e777edchueur2,%%,<qfASIQ",
"LHZnvmhu0;+  X+=-6uh7ttthhu6e9<;;%;3izCJIW",
"GHFCvcjhr1+  Xo*1eehtutuhhsr0:=*,,;,izALQ~",
"PULNmvlh08*@ooo#-ruhhuteety1>*$#%;;<abAKW~",
"RPGZNvkky1$#OoX+=66uhdee711-&$@+**,,wzZGLI",
"WPPSnhdhe4&#o.oX&2eukhe41=&&$$+&;:23ibNCDP",
"RLRJVvkhu9=$o..XO&6tdd0-++++@@%*;;<9fbMZDU",
"RPLRKZZZhf9*o.ooX+-1691&+@@@O@$*::2wjNCSHT",
"!QRUHZNmmcs1%O@oXXO&**$oo@@o#$@$,<wgBHHJPE",
"RRPJVmkNZmk6>*#OOoXO@oooo@@@@*;;8izBGIPYYE",
"PJKDZVmvCmcjp2*#@@+Oooo@o@**;>31wfxCAJITUE",
"PFHJFSVNNmnvmd2=%%$#%#%O@$=39qw9yfcHIUIITW",
"PJPRLGSZVCCmvmg0<:%*;%;**<5wfzsjjnCFHKFGPQ",
"!E!!RPHPZVNCZCZnpw2>,:>>56wsujlmVZZSDDJDPW",
"~QW~QTKPZVSHDGDSBngppwryyysudkmZHDDFDGKJPT",
"//~~!TLPUUIJGJJIHDSNmcjhjklllcZGHFJJCZDKIU",
"(/(^QRPPITIYPPJJJDJJCmvvnkccmNZSJFFDGFIEWQ",
"))(~!WUYYYIPIULKJFHJSZnvCNvcNDSZHJPJPUTY~Q",
"))((^WRWQYUURYIPKHPPPHZCCSDCDPHDJPPYQQEE~Q",
"))))(/Q!!EYRQQEUPPUTYJFGADPJJPPPUTRQ^^QUEQ",
"))))))^!!!EE~~WYYYUWTUPPJLUYYTYWEUWQ~QWEQ!"
};
