/* XPM */
static char *P1670519637[] = {
/* columns rows colors chars-per-pixel */
"42 42 110 2 ",
"   c None",
".  c #100A0A",
"X  c #1F1718",
"o  c #200203",
"O  c #280101",
"+  c #2C0102",
"@  c #310202",
"#  c #310707",
"$  c #340406",
"%  c #3B0202",
"&  c #3C0101",
"*  c #390305",
"=  c #360508",
"-  c #32080E",
";  c #2E0B12",
":  c #2D0C15",
">  c #300A11",
",  c #301112",
"<  c #351719",
"1  c #171526",
"2  c #1E1627",
"3  c #1C1729",
"4  c #1C172A",
"5  c #16192E",
"6  c #171B2F",
"7  c #1A182A",
"8  c #181A2F",
"9  c #171A30",
"0  c #171B30",
"q  c #141C33",
"w  c #111D35",
"e  c #131D34",
"r  c #121D35",
"t  c #131D35",
"y  c #111E35",
"u  c #121E35",
"i  c #121F35",
"p  c #111D36",
"a  c #121D36",
"s  c #121D37",
"d  c #111E36",
"f  c #111F36",
"g  c #121E36",
"h  c #131E36",
"j  c #121F36",
"k  c #131F36",
"l  c #121E37",
"z  c #131F37",
"x  c #141D34",
"c  c #141F37",
"v  c #241220",
"b  c #211423",
"n  c #201525",
"m  c #2C1C36",
"M  c #361F3E",
"N  c #3B1F3F",
"B  c #142038",
"V  c #222022",
"C  c #363436",
"Z  c #4E1819",
"A  c #592527",
"S  c #403C3F",
"D  c #461F41",
"F  c #4D1F43",
"G  c #501F44",
"H  c #511F44",
"J  c #672049",
"K  c #682049",
"L  c #692049",
"P  c #6D204A",
"I  c #4F4C4F",
"U  c #514E51",
"Y  c #574E51",
"T  c #5A5053",
"R  c #6E4043",
"E  c #684345",
"W  c #676C7F",
"Q  c #81204E",
"!  c #882150",
"~  c #8C2151",
"^  c #8F2151",
"/  c #912152",
"(  c #982154",
")  c #9A2254",
"_  c #9C2154",
"`  c #9B2657",
"'  c #982D5B",
"]  c #86315B",
"[  c #9F3462",
"{  c #A73B6A",
"}  c #AA3D6B",
"|  c #9C5A7D",
" . c #A24E76",
".. c #8A6468",
"X. c #98757A",
"o. c #B45A82",
"O. c #A66385",
"+. c #BA7092",
"@. c #908389",
"#. c #A48489",
"$. c #AF9197",
"%. c #C0B9C0",
"&. c #CDC8D5",
"*. c #D6CDD5",
"=. c #D4CFDC",
"-. c #D8D3DF",
";. c #E2CDDC",
":. c #ECE5F0",
">. c #F8F0FA",
",. c #FCF3FD",
/* pixels */
"                                                                                    ",
"                                                                                    ",
"                                                                                    ",
"                                                                                    ",
"    c l u u l u l u 9 2 x l u u u u u l u l l u u l u l l u l                       ",
"    l u u u u l u 1 . @ = 4 u u l u l u l u u u l u l u u l l u u l                 ",
"    u l u u l u ; # X Y #.Z - q u l u l u B l u u l u l u l u l l u u B             ",
"      u u     9 % E S U *.X.& n l u                     l u l u u l u l u           ",
"                * ..U C %.$.& 2 l u                           u u l u l u l         ",
"                n A T n @.R % 4 u l                             l u l u l u l       ",
"              u 6 % , . < & ; u l u       l l u u l u l l         l l u u l u B     ",
"      u u l u l u , @ + $ v x u u l   u l u u l l u l u u u l       u l l u l u     ",
"      u l u l u u u 9 9 m H J F l l u l l u l u       l l u l       l u l u l u     ",
"      l u l u l H J L ^ _ ` ' ^ u l l u u l           u u l u       u l u l u l     ",
"                ] { } +.;.>. .Q u l u l l u         u l l u l       l u l u l u     ",
"                -.=.&.:.,.o.( D l u l u u           u l u           u l u l u l     ",
"                W | O.{ ( ! M u u l u l u l                       u l u l u u       ",
"            B u P ^ ~ P N u l l l u l u l u                     l l u l u l l       ",
"      l u u u l r r l u l u l u u l u l u l u l             u l l u l u l l         ",
"      u l u l u r r u l u l u l l   u u l u l u u l u l l u l u u l u l             ",
"      u u l u l u u l u l u l u u       l u u l u u l u u l u l u u                 ",
"                u l u l u l u l               l l B u l l u u                       ",
"                l u l u l u l u                                                     ",
"                u l u l u l u l                                                     ",
"                u l u l u l l u                                                     ",
"                u u l u l u u l                                                     ",
"                u l u l u l u u                                                     ",
"                l u l u l u l u                                                     ",
"                  l u l u l u l                                                     ",
"                  u l u l u l u                                                     ",
"                  l u l u l l u                                                     ",
"                  u l u l u u                                                       ",
"                  l l u l u l                                                       ",
"                  u u l u l u                                                       ",
"                  u l u l u l                                                       ",
"                  l u l u l u                                                       ",
"                  l u l l u                                                         ",
"                                                                                    ",
"                                                                                    ",
"                                                                                    ",
"                                                                                    ",
"                                                                                    "
};
